<?xml version="1.0" standalone="no"?>
<!DOCTYPE svg PUBLIC "-//W3C//DTD SVG 20010904//EN"
 "http://www.w3.org/TR/2001/REC-SVG-20010904/DTD/svg10.dtd">
<svg version="1.0" xmlns="http://www.w3.org/2000/svg"
 width="500.000000pt" height="500.000000pt" viewBox="0 0 500.000000 500.000000"
 preserveAspectRatio="xMidYMid meet">

<g transform="translate(0.000000,500.000000) scale(0.100000,-0.100000)"
fill="#000000" stroke="none">
<path d="M2725 3715 l-220 -84 3 -162 c1 -90 4 -164 5 -166 3 -2 458 167 466
173 2 2 0 75 -4 163 -5 110 -11 161 -19 160 -6 0 -110 -38 -231 -84z"/>
<path d="M3720 3710 c-113 -44 -308 -119 -435 -168 l-230 -88 3 -159 c2 -88 5
-161 7 -164 3 -2 107 35 232 82 l228 85 -2 140 -2 140 132 50 c317 121 297
112 297 138 0 13 -6 24 -12 23 -7 0 -105 -36 -218 -79z"/>
<path d="M2275 3549 c-71 -27 -172 -66 -223 -86 l-94 -36 7 -156 c4 -86 10
-159 14 -162 3 -4 110 33 236 81 l230 88 -2 33 c-1 19 -5 91 -9 162 -4 86 -10
127 -18 126 -6 0 -69 -23 -141 -50z"/>
<path d="M2746 3343 l-228 -87 7 -160 c4 -89 9 -163 11 -165 1 -2 108 37 236
86 220 84 233 90 231 113 -1 14 -5 87 -8 163 -4 75 -10 137 -14 137 -3 -1
-109 -40 -235 -87z"/>
<path d="M3765 3349 c-99 -39 -296 -115 -439 -169 -142 -55 -259 -100 -260
-102 -4 -5 16 -313 20 -317 3 -4 131 43 363 132 l104 40 -7 136 -7 136 215 84
c197 76 216 86 216 107 0 13 -6 24 -12 23 -7 0 -94 -32 -193 -70z"/>
<path d="M4490 3319 c-198 -17 -474 -68 -728 -136 l-103 -28 3 -155 3 -155
-1370 -542 c-753 -298 -1376 -542 -1382 -542 -8 -1 -13 12 -13 32 l0 34 170
69 170 69 0 33 0 32 -55 -6 c-44 -5 -64 -2 -107 16 -29 12 -56 28 -60 34 -4 6
-8 34 -8 62 l0 51 53 7 c28 3 79 6 113 6 l60 0 -3 88 c-2 48 -5 102 -6 120 -2
17 2 32 8 32 5 0 139 7 297 17 158 9 291 13 295 9 5 -4 10 -52 11 -107 2 -54
8 -99 12 -99 5 0 21 5 35 12 l26 12 -7 125 c-3 69 -8 129 -11 133 -2 4 -31 5
-63 3 -33 -3 -87 -7 -120 -10 l-60 -5 0 45 c0 24 -4 46 -9 49 -4 3 -89 -21
-187 -54 -134 -45 -192 -60 -235 -60 l-57 0 -5 53 c-4 28 -9 109 -13 180 l-6
127 -28 0 c-15 0 -42 -3 -60 -7 l-33 -6 7 -131 c3 -72 9 -165 12 -207 l6 -76
-58 -36 -59 -36 -7 92 c-4 51 -10 136 -13 190 l-7 97 -60 0 -61 0 6 -102 c4
-57 10 -160 13 -229 l7 -127 -32 -17 c-27 -14 -31 -21 -27 -43 3 -15 8 -94 12
-177 l6 -150 -88 -65 c-49 -36 -132 -107 -184 -158 l-95 -94 -175 -14 c-96 -7
-185 -13 -197 -14 -21 0 -23 -5 -23 -54 l0 -53 517 -7 c1166 -16 3648 55 4357
124 54 6 104 10 112 10 10 0 14 14 14 50 l0 50 -155 0 -155 0 0 49 c0 57 -27
104 -80 138 -129 82 -149 113 -150 224 0 123 56 258 202 486 107 168 233 377
291 485 44 81 47 91 47 161 l0 75 -33 6 c-128 24 -299 29 -477 15z"/>
<path d="M2215 3141 l-230 -87 2 -65 c1 -35 5 -107 8 -160 l7 -96 229 86 229
86 -1 70 c-1 38 -4 111 -8 161 l-6 92 -230 -87z"/>
<path d="M2775 2979 l-230 -86 3 -164 c2 -90 5 -165 7 -167 2 -2 109 36 237
85 l233 88 -4 120 c-2 65 -6 140 -10 165 l-6 46 -230 -87z"/>
<path d="M2290 2799 c-85 -33 -186 -71 -223 -85 l-68 -26 7 -132 c3 -72 9
-145 13 -162 l6 -32 230 87 230 87 -2 80 c-5 158 -15 244 -26 243 -7 -1 -82
-28 -167 -60z"/>
<path d="M1603 2433 l-33 -4 0 -59 c0 -32 4 -62 10 -65 5 -3 26 -3 45 1 l36 6
-3 61 c-3 64 -5 66 -55 60z"/>
<path d="M1722 2378 c3 -68 12 -77 64 -64 22 6 24 11 24 66 l0 60 -45 0 -46 0
3 -62z"/>
<path d="M1430 2423 c-24 -4 -25 -6 -20 -66 3 -41 9 -62 18 -61 6 1 26 2 42 3
27 1 30 4 30 35 0 18 -3 48 -6 65 -7 31 -10 33 -64 24z"/>
<path d="M1273 2413 c-13 -5 -18 -79 -7 -107 4 -11 19 -16 48 -16 l41 0 -3 65
-4 65 -31 -1 c-18 0 -38 -3 -44 -6z"/>
<path d="M220 1175 l0 -215 45 0 45 0 0 215 0 215 -45 0 -45 0 0 -215z"/>
<path d="M400 1175 l0 -215 40 0 40 0 1 123 0 122 52 -102 c36 -72 57 -103 69
-103 13 0 34 32 72 108 l55 107 0 -127 1 -128 40 0 40 0 0 215 0 215 -35 0
c-35 0 -35 0 -102 -135 l-68 -135 -70 135 c-68 131 -71 135 -102 135 l-33 0 0
-215z"/>
<path d="M900 1176 l0 -216 40 0 39 0 3 58 3 57 71 5 c112 8 155 52 155 158 0
59 -15 89 -64 126 -21 16 -47 20 -137 24 l-110 5 0 -217z m210 109 c24 -22 26
-72 4 -103 -13 -19 -24 -22 -75 -22 l-59 0 0 68 c0 38 3 72 8 76 13 14 101 0
122 -19z"/>
<path d="M1359 1362 c-63 -40 -93 -103 -93 -192 1 -137 99 -233 222 -216 61 8
107 39 140 94 23 40 27 58 27 122 0 88 -21 137 -79 184 -31 26 -47 31 -104 34
-60 3 -72 0 -113 -26z m176 -82 c73 -68 41 -221 -50 -244 -36 -9 -92 18 -115
56 -38 63 -18 172 39 204 34 19 97 11 126 -16z"/>
<path d="M1730 1176 l0 -216 40 0 39 0 3 58 3 57 40 0 c37 0 41 -3 73 -57 34
-57 35 -58 79 -58 l45 0 -20 33 c-67 109 -63 99 -41 114 51 36 69 161 32 212
-42 55 -65 64 -183 69 l-110 5 0 -217z m210 109 c24 -22 26 -72 4 -103 -13
-19 -24 -22 -75 -22 l-59 0 0 68 c0 38 3 72 8 76 13 14 101 0 122 -19z"/>
<path d="M2070 1350 l0 -39 58 -3 57 -3 3 -172 2 -173 40 0 40 0 2 173 3 172
58 3 57 3 0 39 0 40 -160 0 -160 0 0 -40z"/>
<path d="M2536 1381 c-10 -15 -156 -403 -156 -413 0 -5 19 -8 42 -6 39 3 42 5
56 46 l14 43 86 -3 85 -3 15 -42 c13 -42 15 -43 58 -43 l44 0 -26 68 c-14 37
-50 133 -81 215 l-55 147 -39 0 c-21 0 -40 -4 -43 -9z m75 -188 c10 -31 19
-60 19 -65 0 -4 -25 -8 -56 -8 -41 0 -55 3 -52 13 3 6 15 43 28 81 25 77 27
76 61 -21z"/>
<path d="M2893 1365 c-113 -68 -127 -281 -24 -368 72 -60 176 -61 239 -2 l37
34 -26 27 -27 26 -31 -23 c-80 -59 -181 3 -181 111 0 71 55 140 112 140 35 0
88 -26 88 -43 0 -6 14 3 32 20 31 31 31 33 14 52 -51 56 -162 68 -233 26z"/>
<path d="M3210 1175 l0 -215 40 0 40 0 0 215 0 215 -40 0 -40 0 0 -215z"/>
<path d="M3475 1376 c-102 -44 -146 -195 -91 -313 56 -119 202 -149 301 -61
49 42 68 101 63 190 -4 86 -35 141 -97 176 -45 25 -128 29 -176 8z m136 -83
c60 -36 79 -141 36 -204 -53 -79 -150 -70 -188 17 -55 123 47 249 152 187z"/>
<path d="M3830 1175 l0 -215 40 0 39 0 3 126 3 126 85 -124 c81 -117 87 -123
123 -126 l37 -3 0 215 0 216 -40 0 -39 0 -3 -131 -3 -131 -90 130 c-84 122
-92 131 -122 132 l-33 0 0 -215z"/>
<path d="M4250 1175 l0 -215 140 0 140 0 0 40 0 40 -101 0 -100 0 3 48 3 47
83 3 82 3 0 34 0 34 -82 3 -83 3 0 45 0 45 93 3 92 3 0 39 0 40 -135 0 -135 0
0 -215z"/>
<path d="M4648 1374 c-37 -20 -58 -63 -58 -119 0 -61 35 -97 116 -120 57 -17
94 -39 94 -57 0 -22 -42 -48 -78 -48 -21 0 -55 9 -77 20 -22 11 -40 20 -41 20
-5 0 -26 -71 -22 -74 19 -17 80 -39 122 -43 40 -4 64 -1 98 14 105 47 103 188
-4 226 -23 8 -61 21 -83 29 -73 25 -54 94 25 92 21 -1 51 -8 68 -17 30 -15 31
-15 41 16 16 44 15 47 -24 63 -44 18 -142 17 -177 -2z"/>
<path d="M1464 801 c-145 -66 -163 -298 -29 -389 90 -63 223 -25 275 79 27 52
27 165 1 217 -50 97 -153 136 -247 93z m126 -76 c59 -30 83 -118 52 -188 -48
-108 -182 -98 -213 16 -32 121 63 223 161 172z"/>
<path d="M1905 801 c-78 -36 -115 -102 -115 -203 1 -172 142 -264 294 -191
l36 17 0 88 0 88 -30 0 -30 0 0 -60 c0 -56 -2 -61 -26 -70 -89 -34 -166 26
-166 130 0 113 92 174 181 119 l34 -21 26 27 26 26 -28 24 c-52 46 -136 57
-202 26z"/>
<path d="M2450 807 c-70 -24 -101 -117 -61 -183 15 -25 34 -37 88 -54 75 -25
103 -44 103 -70 0 -45 -82 -59 -153 -25 -43 20 -45 20 -53 -22 -5 -28 -3 -33
27 -49 49 -26 164 -26 203 1 31 21 56 69 56 110 0 62 -36 93 -145 126 -22 6
-46 16 -52 22 -18 13 -16 52 2 67 21 17 86 16 123 -3 l31 -15 12 35 c13 40 8
46 -51 63 -45 13 -86 12 -130 -3z"/>
<path d="M3335 809 c-123 -38 -173 -230 -90 -349 52 -75 154 -100 234 -58 62
32 71 51 41 83 l-24 25 -24 -22 c-34 -33 -111 -32 -146 1 -50 47 -57 143 -15
202 38 53 118 62 164 19 l21 -20 24 25 c30 32 21 51 -40 83 -46 23 -94 27
-145 11z"/>
<path d="M3664 806 c-49 -22 -74 -61 -74 -118 0 -65 33 -100 116 -123 76 -22
102 -45 87 -78 -19 -40 -82 -41 -174 -3 -12 6 -19 -1 -28 -25 -6 -18 -10 -33
-9 -34 20 -16 80 -37 118 -42 62 -7 131 17 156 55 11 16 18 46 18 75 0 62 -26
89 -118 120 -84 28 -106 53 -77 88 22 28 80 31 128 7 30 -15 30 -15 43 20 14
39 9 45 -50 62 -48 13 -99 12 -136 -4z"/>
<path d="M1050 600 l0 -210 130 0 130 0 0 35 0 35 -90 0 -90 0 0 175 0 175
-40 0 -40 0 0 -210z"/>
<path d="M2220 600 l0 -210 35 0 35 0 0 210 0 210 -35 0 -35 0 0 -210z"/>
<path d="M2680 775 l0 -34 58 -3 57 -3 3 -172 2 -173 40 0 40 0 0 175 0 175
55 0 55 0 0 35 0 35 -155 0 -155 0 0 -35z"/>
<path d="M3050 600 l0 -210 40 0 40 0 0 210 0 210 -40 0 -40 0 0 -210z"/>
</g>
</svg>
