<svg xmlns="http://www.w3.org/2000/svg" width="3509" height="2407" viewBox="0 0 3509 2407" version="1.1"><path d="M 3232 330.996 C 3046.966 338.780, 2831.107 376.734, 2608.500 440.624 C 2586.500 446.938, 2568.146 452.458, 2567.712 452.890 C 2566.827 453.772, 2571.121 557.507, 2573.698 597.500 C 2574.620 611.800, 2575.402 630.025, 2575.437 638 C 2575.494 651.210, 2575.288 652.969, 2573.118 657.770 C 2570.124 664.394, 2562.013 671.952, 2553.698 675.863 C 2550.289 677.466, 2455.475 715.013, 2343 759.300 C 2070.618 866.551, 1756.308 990.558, 1190.500 1214.006 C 932.550 1315.875, 714.750 1401.815, 706.500 1404.985 C 678.647 1415.686, 637.290 1431, 636.245 1431 C 634.955 1431, 631.995 1415.275, 631.998 1408.432 C 632 1402.879, 634.276 1394.121, 636.768 1390.078 C 642.771 1380.336, 651.368 1374.973, 675.206 1366.096 C 696.017 1358.347, 721.202 1348.145, 768 1328.507 C 785.875 1321.006, 811.291 1310.820, 824.480 1305.872 C 851.255 1295.826, 856.178 1293.442, 863.219 1287.113 C 869.257 1281.684, 872.069 1276.333, 872.734 1269.001 C 873.357 1262.130, 870.847 1252.400, 868.241 1251.584 C 867.283 1251.284, 850.525 1248.765, 831 1245.986 C 792.215 1240.467, 776.767 1237.617, 761.500 1233.162 C 730.543 1224.129, 718.119 1215.405, 711.757 1198.233 C 709.903 1193.230, 709.624 1190.272, 709.566 1175 C 709.497 1156.615, 712.317 1130.179, 714.429 1129.410 C 715.504 1129.019, 857.225 1120, 862.297 1120 L 865 1120 865 1037.580 L 865 955.159 871.250 954.568 C 883.620 953.397, 1285.229 929.896, 1285.652 930.318 C 1285.889 930.556, 1287.916 964.219, 1290.156 1005.125 C 1292.396 1046.031, 1294.515 1079.797, 1294.864 1080.161 C 1295.785 1081.117, 1311.407 1076.417, 1318.943 1072.917 C 1332.004 1066.851, 1338.837 1058.489, 1341.105 1045.800 C 1342.116 1040.145, 1342.040 1036.020, 1340.663 1021.738 C 1337.559 989.545, 1335.724 958.349, 1334.472 916.500 C 1333.736 891.899, 1332.915 887.112, 1328.654 882.594 C 1323.609 877.245, 1319.254 876.502, 1301 877.874 C 1229.668 883.237, 1162.238 887.572, 1161.509 886.842 C 1161.230 886.564, 1159.335 871.635, 1157.298 853.668 C 1153.920 823.877, 1153.430 821, 1151.742 821 C 1148.711 821, 1125.584 826.744, 1109.500 831.492 C 1089.292 837.457, 1066.644 845.215, 1022.500 861.293 C 930.695 894.730, 896.696 902.716, 841.817 903.735 L 815.134 904.230 814.598 900.865 C 814.303 899.014, 810.672 843.950, 806.529 778.500 C 802.385 713.050, 798.751 657.235, 798.453 654.467 L 797.910 649.433 757.705 653.242 C 735.592 655.337, 716.869 657.277, 716.098 657.552 C 714.056 658.283, 715.066 686.829, 719.917 765.500 C 726.310 869.167, 729.225 925.920, 728.578 934.105 C 727.633 946.065, 725.819 950.069, 718.157 957.111 C 710.436 964.208, 694.598 974.876, 677.500 984.499 C 670.900 988.213, 661.760 993.492, 657.188 996.231 C 652.616 998.969, 648.735 1001.050, 648.563 1000.855 C 648.391 1000.660, 644.568 942, 640.069 870.500 C 635.569 799, 631.700 739.933, 631.471 739.239 C 631.143 738.246, 622.091 738.034, 588.777 738.239 L 546.500 738.500 546.775 746 C 547.882 776.258, 556.645 941.592, 560.105 997.500 C 561.262 1016.200, 561.962 1034.230, 561.659 1037.566 C 560.481 1050.572, 554.118 1060.748, 542.237 1068.628 C 539.082 1070.721, 535.213 1073.798, 533.639 1075.466 C 529.170 1080.206, 523.896 1092.056, 523.295 1098.708 C 522.695 1105.360, 523.830 1131.424, 528.014 1207 C 531.936 1277.856, 533.008 1307.020, 531.874 1312.067 C 530.614 1317.673, 525.967 1326.596, 521.104 1332.749 C 515.580 1339.738, 436.231 1411.123, 332.500 1502.425 C 289.242 1540.500, 281.631 1546.400, 272.500 1548.935 C 270.300 1549.545, 249.150 1551.603, 225.500 1553.507 C 180.790 1557.106, 6.292 1570, 2.287 1570 L 0 1570 0 1609.337 L 0 1648.674 48.250 1649.348 C 74.788 1649.718, 127.775 1650.686, 166 1651.498 C 343.698 1655.272, 460.420 1655.990, 574 1654.007 C 605.075 1653.465, 672.125 1652.335, 723 1651.496 C 1095.838 1645.347, 1461.349 1638.484, 2186.500 1624.018 C 2525.245 1617.260, 2511.401 1617.726, 2766 1604.513 C 3080.996 1588.165, 3254.167 1577.837, 3369.500 1568.520 C 3392.600 1566.654, 3431.975 1563.499, 3457 1561.508 C 3482.025 1559.517, 3503.512 1557.680, 3504.750 1557.425 L 3507 1556.962 3507 1520.981 L 3507 1485 3399.648 1485 L 3292.295 1485 3292.771 1468.250 C 3293.959 1426.408, 3283.406 1397.895, 3257.147 1372 C 3244.120 1359.153, 3230.921 1350.031, 3207.831 1337.917 C 3187.495 1327.248, 3178.160 1320.787, 3166.981 1309.643 C 3135.051 1277.813, 3123.028 1229.651, 3131 1165.503 C 3138.511 1105.057, 3162.041 1042.139, 3205.839 965.391 C 3238.991 907.298, 3384.860 665.373, 3462.329 540 C 3488.430 497.759, 3493.725 487.878, 3498.836 471.880 C 3506.422 448.132, 3508.446 430.481, 3508.476 387.781 C 3508.499 355.299, 3508.426 353.988, 3506.486 352.044 C 3504.963 350.519, 3500.938 349.424, 3489.986 347.554 C 3450.013 340.729, 3406.502 335.465, 3365 332.433 C 3339.914 330.600, 3261.533 329.753, 3232 330.996 M 1024.740 1713.524 C 1003.607 1717.504, 985.200 1727.496, 974.500 1740.797 C 968.461 1748.304, 962.299 1761.048, 960.472 1769.813 C 957.953 1781.895, 957.018 1807.526, 957.019 1864.500 C 957.019 1921.795, 958.033 1948.997, 960.575 1959.972 C 964.722 1977.873, 977.370 1994.716, 993.891 2004.336 C 1008.394 2012.781, 1021.443 2016.064, 1043.175 2016.736 C 1068.563 2017.521, 1085.216 2014.156, 1102 2004.849 C 1111.169 1999.765, 1122.941 1988.183, 1128.276 1979 C 1138.373 1961.617, 1139.335 1951.656, 1139.335 1864.500 C 1139.335 1792.327, 1138.601 1777.151, 1134.486 1764.178 C 1128.400 1744.988, 1114.335 1729.468, 1095.149 1720.768 C 1081.880 1714.752, 1071.488 1712.783, 1051 1712.405 C 1037.709 1712.159, 1030.315 1712.474, 1024.740 1713.524 M 2009.450 1713.461 C 1979.869 1718.835, 1959.333 1733, 1947.997 1755.848 C 1940.613 1770.730, 1939.721 1784.045, 1940.285 1871 C 1940.735 1940.423, 1941.005 1945.558, 1945.142 1963.311 C 1949.625 1982.550, 1960.279 1996.326, 1977.562 2005.231 C 1995.365 2014.404, 2012.192 2017.568, 2038.663 2016.722 C 2058.187 2016.097, 2067.606 2014.155, 2080.567 2008.082 C 2090.542 2003.407, 2096.011 1999.736, 2103.952 1992.384 C 2120.504 1977.060, 2124.784 1962.484, 2125.722 1918.250 L 2126.257 1893 2086.734 1893 L 2047.212 1893 2046.769 1923.750 C 2046.288 1957.201, 2045.782 1960.615, 2040.756 1964.346 C 2037.666 1966.639, 2029.809 1967.039, 2026.165 1965.088 C 2019.704 1961.630, 2019.079 1952.923, 2019.059 1866 C 2019.038 1777.631, 2019.758 1767.340, 2026.212 1763.887 C 2029.080 1762.352, 2037.978 1762.383, 2040.883 1763.938 C 2046.035 1766.695, 2046.417 1769.583, 2046.809 1808.750 L 2047.171 1845 2086.586 1845 L 2126 1845 2126 1819.051 C 2126 1771.515, 2121.522 1752.781, 2106.524 1737.564 C 2094.829 1725.697, 2076.865 1716.996, 2057.074 1713.612 C 2045.697 1711.666, 2019.781 1711.584, 2009.450 1713.461 M 2435.740 1713.524 C 2414.607 1717.504, 2396.200 1727.496, 2385.500 1740.797 C 2379.461 1748.304, 2373.299 1761.048, 2371.472 1769.813 C 2368.953 1781.895, 2368.018 1807.526, 2368.019 1864.500 C 2368.019 1921.795, 2369.033 1948.997, 2371.575 1959.972 C 2375.722 1977.873, 2388.370 1994.716, 2404.891 2004.336 C 2419.394 2012.781, 2432.443 2016.064, 2454.175 2016.736 C 2479.563 2017.521, 2496.216 2014.156, 2513 2004.849 C 2522.169 1999.765, 2533.941 1988.183, 2539.276 1979 C 2549.373 1961.617, 2550.335 1951.656, 2550.335 1864.500 C 2550.335 1792.327, 2549.601 1777.151, 2545.486 1764.178 C 2539.400 1744.988, 2525.335 1729.468, 2506.149 1720.768 C 2492.880 1714.752, 2482.488 1712.783, 2462 1712.405 C 2448.709 1712.159, 2441.315 1712.474, 2435.740 1713.524 M 3160.235 1713.497 C 3132.524 1718.521, 3113.717 1730.823, 3105.563 1749.262 C 3100.845 1759.930, 3099.500 1769.522, 3099.500 1792.500 C 3099.500 1816.551, 3100.604 1823.013, 3107.020 1836.500 C 3114.632 1852.503, 3119.010 1856.467, 3158.176 1882.813 C 3193.514 1906.586, 3198.233 1910.660, 3201.106 1919.882 C 3202.826 1925.402, 3203.474 1950.459, 3202.025 1955.387 C 3199.664 1963.415, 3192.559 1967.849, 3184.868 1966.093 C 3180.071 1964.998, 3179.300 1964.451, 3177.252 1960.687 C 3175.764 1957.951, 3175.469 1953.855, 3175.172 1931.750 L 3174.826 1906 3137.913 1906 L 3101 1906 3101.001 1920.250 C 3101.002 1947.115, 3103.842 1966.668, 3109.495 1978.730 C 3117.071 1994.898, 3134.625 2007.332, 3158.881 2013.712 C 3172.074 2017.181, 3198.879 2018.077, 3213.975 2015.553 C 3242.608 2010.765, 3264.090 1997.860, 3272.025 1980.680 C 3276.161 1971.726, 3278.099 1960.662, 3278.714 1942.500 C 3279.590 1916.604, 3276.092 1894.108, 3268.985 1879.922 C 3262.250 1866.479, 3241.362 1849.087, 3206.140 1827.595 C 3179.802 1811.524, 3176.521 1808.219, 3173.955 1795.177 C 3172.472 1787.638, 3173.182 1774.482, 3175.293 1770.401 C 3178.596 1764.012, 3184.598 1761.268, 3190.822 1763.299 C 3197.015 1765.321, 3198.151 1769.080, 3198.767 1789.583 L 3199.290 1807 3235.769 1807 L 3272.248 1807 3271.695 1786.250 C 3271.081 1763.221, 3269.754 1755.152, 3264.969 1745.341 C 3257.298 1729.616, 3234.337 1716.935, 3206.533 1713.068 C 3196.157 1711.625, 3169.185 1711.875, 3160.235 1713.497 M 223 1864.500 L 223 2011 263 2011 L 303 2011 303 1864.500 L 303 1718 263 1718 L 223 1718 223 1864.500 M 386 1864.500 L 386 2011 420.995 2011 L 455.990 2011 456.245 1917.953 L 456.500 1824.905 469.833 1916.203 C 477.166 1966.416, 483.386 2008.295, 483.656 2009.267 C 484.110 2010.905, 485.949 2011.015, 508.815 2010.767 L 533.484 2010.500 545.985 1918.515 C 553.792 1861.065, 558.726 1827.651, 559.125 1829.515 C 559.476 1831.157, 559.817 1872.662, 559.882 1921.750 L 560 2011 594.500 2011 L 629 2011 629 1864.500 L 629 1718 577.713 1718 L 526.425 1718 518.106 1781.250 C 513.530 1816.037, 509.480 1845.802, 509.107 1847.393 C 508.386 1850.464, 508.292 1849.888, 497.019 1773.500 C 493.773 1751.500, 490.560 1730.013, 489.879 1725.750 L 488.641 1718 437.321 1718 L 386 1718 386 1864.500 M 714 1864.433 L 714 2011 754 2011 L 794 2011 794 1952.110 L 794 1893.220 815.750 1892.749 C 839.896 1892.226, 847.317 1890.898, 858.977 1885.011 C 873.892 1877.482, 880.124 1867.732, 883.033 1847.372 C 884.808 1834.949, 883.770 1770.700, 881.647 1761.588 C 876.389 1739.022, 862.718 1726.694, 836.500 1720.881 C 826.969 1718.768, 823.861 1718.645, 770.250 1718.265 L 714 1717.866 714 1864.433 M 1221 1864.500 L 1221 2011 1261 2011 L 1301 2011 1301 1945.123 L 1301 1879.246 1305.750 1879.688 C 1314.061 1880.462, 1319.017 1882.797, 1320.651 1886.708 C 1323.194 1892.793, 1323.932 1909.278, 1323.966 1960.750 L 1324 2011 1360.557 2011 L 1397.115 2011 1396.807 1951.227 L 1396.500 1891.454 1393.229 1884.812 C 1387.007 1872.177, 1378.525 1865.171, 1363.797 1860.501 L 1356.989 1858.343 1364.744 1856.664 C 1390.278 1851.137, 1397.005 1839.029, 1396.996 1798.619 C 1396.988 1765.623, 1392.426 1750.191, 1378.606 1736.417 C 1362.222 1720.087, 1349.780 1718, 1268.800 1718 L 1221 1718 1221 1864.500 M 1467 1747.500 L 1467 1777 1490 1777 L 1513 1777 1513 1894 L 1513 2011 1553 2011 L 1593 2011 1593 1894 L 1593 1777 1616 1777 L 1639 1777 1639 1747.500 L 1639 1718 1553 1718 L 1467 1718 1467 1747.500 M 1696.444 1864.250 L 1676.427 2010.500 1716.869 2010.761 C 1739.112 2010.905, 1757.551 2010.783, 1757.844 2010.489 C 1758.257 2010.076, 1762.733 1965.153, 1762.953 1959.222 C 1762.989 1958.234, 1766.129 1958.007, 1776.750 1958.222 L 1790.500 1958.500 1792.500 1984.167 C 1793.600 1998.283, 1794.768 2010.101, 1795.095 2010.428 C 1795.422 2010.755, 1813.673 2010.905, 1835.653 2010.761 L 1875.616 2010.500 1853.058 1864.252 L 1830.500 1718.003 1773.480 1718.002 L 1716.460 1718 1696.444 1864.250 M 2207 1864.500 L 2207 2011 2247 2011 L 2287 2011 2287 1864.500 L 2287 1718 2247 1718 L 2207 1718 2207 1864.500 M 2632 1864.500 L 2632 2011 2665.493 2011 L 2698.985 2011 2699.243 1946.995 L 2699.500 1882.989 2719.063 1946.745 L 2738.625 2010.500 2773.313 2010.763 L 2808 2011.026 2808 1864.513 L 2808 1718 2775 1718 L 2742 1718 2741.921 1782.250 L 2741.842 1846.500 2720.338 1782.250 L 2698.833 1718 2665.417 1718 L 2632 1718 2632 1864.500 M 2893 1864.500 L 2893 2011 2961.500 2011 L 3030 2011 3030 1981.500 L 3030 1952 3001.500 1952 L 2973 1952 2973 1920 L 2973 1888 2997.500 1888 L 3022 1888 3022 1860 L 3022 1832 2997.500 1832 L 2973 1832 2973 1804.500 L 2973 1777 2999 1777 L 3025 1777 3025 1747.500 L 3025 1718 2959 1718 L 2893 1718 2893 1864.500 M 1044.325 1763.447 C 1039.361 1765.625, 1038.038 1768.638, 1037.003 1780.122 C 1035.854 1792.871, 1035.796 1926.079, 1036.931 1945.737 C 1037.859 1961.814, 1038.803 1964.299, 1044.581 1965.895 C 1050.204 1967.447, 1055.035 1965.430, 1057.500 1960.500 C 1059.447 1956.605, 1059.508 1954.188, 1059.796 1868.543 C 1059.984 1812.778, 1059.723 1778.214, 1059.083 1774.103 C 1057.565 1764.354, 1051.779 1760.177, 1044.325 1763.447 M 2455.325 1763.447 C 2450.361 1765.625, 2449.038 1768.638, 2448.003 1780.122 C 2446.854 1792.871, 2446.796 1926.079, 2447.931 1945.737 C 2448.859 1961.814, 2449.803 1964.299, 2455.581 1965.895 C 2461.204 1967.447, 2466.035 1965.430, 2468.500 1960.500 C 2470.447 1956.605, 2470.508 1954.188, 2470.796 1868.543 C 2470.984 1812.778, 2470.723 1778.214, 2470.083 1774.103 C 2468.565 1764.354, 2462.779 1760.177, 2455.325 1763.447 M 794 1804.917 L 794 1841.783 796.398 1842.385 C 799.527 1843.170, 808.345 1841.476, 811.340 1839.513 C 812.633 1838.665, 814.229 1836.793, 814.885 1835.353 C 817.156 1830.370, 818.242 1816.728, 817.773 1799.086 C 817.125 1774.708, 815.385 1771.006, 803.855 1769.481 C 801.460 1769.165, 798.263 1768.713, 796.750 1768.478 L 794 1768.050 794 1804.917 M 1301 1800.600 L 1301 1832.906 1306.250 1832.313 C 1313.838 1831.457, 1318.053 1829.846, 1320.155 1827 C 1325.238 1820.118, 1325.269 1781.959, 1320.198 1775.005 C 1317.718 1771.605, 1312.561 1769.291, 1306.250 1768.747 L 1301 1768.294 1301 1800.600 M 1775.280 1795.646 C 1774.647 1800.516, 1772.551 1816.200, 1770.621 1830.500 C 1767.485 1853.736, 1764.369 1879.924, 1762.441 1899.250 L 1761.767 1906 1775.205 1906 L 1788.642 1906 1787.818 1899.250 C 1786.009 1884.437, 1781 1835.143, 1779.003 1812.500 C 1777.839 1799.300, 1776.784 1788.116, 1776.659 1787.646 C 1776.533 1787.176, 1775.913 1790.776, 1775.280 1795.646" stroke="none" fill="#040404" fill-rule="evenodd"/><path d="M 2019 19.585 C 1929.585 52.774, 1863.498 77.500, 1813 96.658 C 1758.622 117.288, 1759.494 116.808, 1755.030 128.557 C 1752.879 134.217, 1752.802 135.381, 1753.414 153 C 1754.134 173.728, 1757.761 241.375, 1761.510 304 C 1762.876 326.825, 1763.996 346.288, 1763.997 347.250 C 1763.999 348.212, 1764.443 349, 1764.985 349 C 1766.572 349, 2013.602 255.223, 2065.174 235.043 C 2078.337 229.893, 2081.412 228.286, 2084.368 225.015 C 2090.787 217.910, 2091.406 215.860, 2091.174 202.500 C 2090.788 180.387, 2082.423 2.921, 2081.747 2.510 C 2081.045 2.084, 2073.143 0.007, 2072.384 0.049 C 2071.898 0.076, 2047.875 8.867, 2019 19.585 M 2617.500 61.586 C 2462.343 120.645, 2310.794 178.454, 2214.500 215.314 C 2156.339 237.577, 2153.289 238.869, 2148.970 243.082 C 2146.478 245.512, 2143.369 249.750, 2142.060 252.500 L 2139.681 257.500 2141.392 298.500 C 2143.313 344.523, 2149.700 465.034, 2150.247 465.581 C 2150.443 465.776, 2153.090 466.228, 2156.129 466.585 C 2161.547 467.222, 2163.233 466.648, 2241.578 437.497 C 2323.876 406.875, 2403.886 376.674, 2442.500 361.656 C 2461.583 354.235, 2464.928 352.610, 2467.731 349.406 C 2471.744 344.816, 2474.971 338.254, 2476.546 331.479 C 2478.558 322.822, 2476.046 253.607, 2472.372 216.500 C 2471.555 208.250, 2470.626 195.596, 2470.307 188.380 C 2469.797 176.865, 2469.983 174.415, 2471.823 168.357 C 2475.538 156.125, 2484.470 148.400, 2502.657 141.689 C 2555.865 122.054, 2587.432 110.141, 2633 92.499 C 2662.425 81.107, 2701.160 66.258, 2719.078 59.501 C 2760.895 43.732, 2764.064 42.127, 2768.598 34.412 C 2771.530 29.422, 2771.834 20.833, 2769.341 13.428 C 2767.477 7.895, 2766.585 7.003, 2763 7.093 C 2761.625 7.128, 2696.150 31.650, 2617.500 61.586 M 1635.500 162.136 C 1548.050 194.633, 1435.520 236.791, 1410.658 246.371 C 1386.569 255.652, 1384.186 257.199, 1379.626 266.511 C 1377.207 271.450, 1377 272.886, 1376.998 284.687 C 1376.995 307.316, 1385.163 488.496, 1386.235 489.568 C 1387.117 490.450, 1693.124 374.080, 1702.075 369.459 C 1705.886 367.492, 1711.943 360.382, 1714.248 355.173 C 1716.096 350.994, 1716.212 349.351, 1715.589 336.050 C 1714.106 304.389, 1704.793 159.638, 1703.451 147.392 C 1702.915 142.502, 1702.729 142.235, 1699.080 141.142 C 1696.983 140.514, 1695.095 140.047, 1694.884 140.105 C 1694.673 140.163, 1667.950 150.077, 1635.500 162.136 M 2036.500 279.062 C 1913.827 325.498, 1883.889 336.860, 1834.504 355.724 C 1806.455 366.438, 1782.380 375.794, 1781.004 376.516 C 1777.661 378.269, 1772.615 383.725, 1770.554 387.813 C 1768.997 390.901, 1768.992 393.852, 1770.481 431.313 C 1771.359 453.416, 1773.182 494.978, 1774.532 523.673 C 1775.883 552.368, 1777.275 583.193, 1777.627 592.173 C 1777.979 601.153, 1778.545 609.019, 1778.884 609.653 C 1779.775 611.321, 2084.157 497.029, 2093.664 491.457 C 2098.626 488.549, 2104.205 482.274, 2107.047 476.404 C 2109.035 472.297, 2109.067 471.467, 2108.026 451.328 C 2106.237 416.744, 2104.160 383.429, 2099.980 322.251 C 2097.791 290.214, 2096 262.427, 2096 260.501 C 2096 258.575, 2095.662 257.024, 2095.250 257.054 C 2094.838 257.083, 2068.400 266.987, 2036.500 279.062 M 2698.500 294.590 C 2658.900 309.714, 2583.975 338.321, 2532 358.162 C 2480.025 378.002, 2376.075 417.834, 2301 446.678 C 2149.805 504.767, 2159.962 500.247, 2154.213 511.997 C 2151.787 516.956, 2151.549 518.423, 2151.779 526.997 C 2152.424 551.040, 2163.528 723.428, 2164.537 725.061 C 2164.830 725.535, 2166.570 726.204, 2168.402 726.548 C 2171.163 727.065, 2184.838 722.338, 2248.117 698.993 C 2324.940 670.651, 2417.583 636.006, 2456.407 621.100 C 2470.453 615.708, 2478.269 612.159, 2480.224 610.287 C 2483.777 606.885, 2488.415 597.299, 2489.857 590.380 C 2491.661 581.720, 2488.904 516.085, 2484.324 458.660 C 2482.684 438.095, 2482.681 436.444, 2484.276 430.362 C 2486.438 422.119, 2490.475 416.285, 2497.182 411.709 C 2502.870 407.827, 2505.658 406.670, 2548 390.623 C 2563.125 384.890, 2604.975 368.633, 2641 354.497 C 2677.025 340.360, 2720.438 323.424, 2737.472 316.861 C 2754.507 310.299, 2770.257 303.860, 2772.472 302.554 C 2779.894 298.177, 2785 290.819, 2785 284.501 C 2785 280.670, 2781.109 269.681, 2779.246 268.250 C 2778.350 267.563, 2776.016 267.020, 2774.059 267.046 C 2771.900 267.073, 2742.177 277.908, 2698.500 294.590 M 1644 428.516 C 1556.543 461.241, 1490.795 486.054, 1443.500 504.185 C 1400.777 520.564, 1400.496 520.720, 1395.376 530.824 C 1392.521 536.459, 1392.501 536.622, 1392.649 553.500 C 1392.731 562.850, 1393.764 585.350, 1394.944 603.500 C 1398.033 651.003, 1404.908 747.254, 1405.228 747.486 C 1405.723 747.843, 1608.257 670.924, 1674 645.411 C 1712.272 630.559, 1713.630 629.940, 1717.689 625.511 C 1724.036 618.587, 1726.004 612.228, 1725.981 598.712 C 1725.945 576.716, 1718.028 407.663, 1716.952 405.923 C 1716.615 405.376, 1714.800 404.722, 1712.919 404.468 C 1710.219 404.104, 1695.721 409.163, 1644 428.516 M 2101.500 518.084 C 2080.324 523.959, 2084.383 522.459, 1915.500 586.814 C 1869.300 604.419, 1827.809 620.387, 1823.298 622.299 C 1799.037 632.579, 1789.623 641.568, 1785.283 658.596 C 1783.799 664.418, 1783.538 669.811, 1783.620 693 C 1783.734 725.353, 1784.889 748.360, 1789.893 818 C 1793.431 867.247, 1793.679 869.496, 1795.547 869.418 C 1798.509 869.294, 2014.929 787.210, 2099.455 754.152 C 2104.931 752.011, 2111.029 748.900, 2113.008 747.239 C 2117.153 743.758, 2122.450 734.403, 2123.881 728.033 C 2125.044 722.857, 2123.606 693.178, 2118.501 617 C 2111.511 512.679, 2111.788 515.993, 2110.067 516.071 C 2109.205 516.110, 2105.350 517.016, 2101.500 518.084 M 1673.500 677.591 C 1436.784 766.667, 1417.949 773.881, 1414 776.974 C 1412.075 778.482, 1409.258 782.090, 1407.739 784.992 C 1405.151 789.940, 1405.012 790.838, 1405.514 799.385 C 1405.809 804.398, 1406.725 823.575, 1407.550 842 C 1409.779 891.828, 1416.012 1008.345, 1416.472 1008.805 C 1417.001 1009.335, 1617.869 933.365, 1708.337 898.420 C 1733.182 888.823, 1737.459 886.192, 1742.670 877.300 L 1745.309 872.797 1744.653 853.924 C 1743.933 833.236, 1740.590 775.771, 1735.974 704.739 C 1734.338 679.571, 1733 658.309, 1733 657.489 C 1733 656.670, 1732.438 656.032, 1731.750 656.071 C 1731.063 656.110, 1704.850 665.794, 1673.500 677.591 M 1218.716 952.008 C 1200.135 952.958, 1184.672 953.995, 1184.354 954.313 C 1183.808 954.859, 1187.736 1041.070, 1188.334 1041.668 C 1188.694 1042.027, 1275.385 1037.845, 1275.843 1037.446 C 1276.032 1037.281, 1275.243 1018.101, 1274.090 994.823 C 1272.936 971.546, 1271.994 951.938, 1271.996 951.250 C 1272.001 949.632, 1262.622 949.765, 1218.716 952.008 M 1128.321 956.387 C 1105.122 957.563, 1085.960 958.745, 1085.739 959.013 C 1085.182 959.688, 1089.383 1045.728, 1090 1046.284 C 1090.657 1046.875, 1176.708 1042.651, 1177.272 1042 C 1177.511 1041.725, 1176.759 1021.931, 1175.603 998.013 C 1173.819 961.114, 1173.273 954.504, 1172 954.387 C 1171.175 954.311, 1151.519 955.211, 1128.321 956.387 M 1025.831 961.377 C 1002.913 962.545, 983.822 963.842, 983.405 964.259 C 982.693 964.973, 986.370 1050.761, 987.141 1051.425 C 987.760 1051.957, 1073.809 1047.530, 1074.401 1046.935 C 1074.710 1046.624, 1074.074 1028.399, 1072.987 1006.435 C 1070.491 955.997, 1070.791 959.542, 1069 959.385 C 1068.175 959.313, 1048.749 960.209, 1025.831 961.377 M 910.728 966.987 C 892.154 967.935, 876.801 968.888, 876.612 969.105 C 876.082 969.711, 880.428 1055.767, 881.019 1056.354 C 881.733 1057.065, 967.355 1052.910, 968.096 1052.128 C 968.557 1051.643, 964.655 966.332, 964.123 965.250 C 963.840 964.675, 942.370 965.374, 910.728 966.987 M 1034.960 2073.943 C 1009.390 2079.339, 990.590 2096.215, 984.388 2119.339 C 981.546 2129.933, 980.810 2152.878, 981.312 2215.182 C 981.630 2254.518, 982.212 2278.603, 982.936 2282.366 C 987.525 2306.222, 1003.008 2323.917, 1025.851 2331.413 C 1038.010 2335.403, 1045.740 2336.314, 1062.403 2335.720 C 1073.620 2335.320, 1079.421 2334.628, 1084.973 2333.026 C 1103.875 2327.572, 1118.341 2316.223, 1125.876 2300.938 C 1133.332 2285.815, 1133.258 2286.644, 1133.731 2212.619 C 1134.273 2127.834, 1133.589 2119.986, 1124.276 2104.030 C 1115.410 2088.839, 1099.366 2077.983, 1079.825 2073.950 C 1067.520 2071.411, 1046.972 2071.408, 1034.960 2073.943 M 1268 2073.490 C 1242.398 2079.165, 1221.957 2096.943, 1217.541 2117.374 C 1216.694 2121.293, 1215.551 2129.450, 1215.001 2135.500 C 1213.656 2150.308, 1213.703 2262.894, 1215.061 2276.144 C 1217.715 2302.047, 1229.080 2319.237, 1250.277 2329.406 C 1255.349 2331.840, 1261.885 2334.319, 1264.799 2334.916 C 1271.444 2336.275, 1286.075 2336.280, 1291.958 2334.924 C 1301.598 2332.702, 1310.460 2326.620, 1317.044 2317.706 L 1319.847 2313.911 1322.630 2322.456 L 1325.412 2331 1346.706 2331 L 1368 2331 1368 2263 L 1368 2195 1329 2195 L 1290 2195 1290 2214.500 L 1290 2234 1296.591 2234 L 1303.182 2234 1302.807 2258.250 C 1302.402 2284.393, 1301.661 2288.505, 1296.896 2291.056 C 1293.551 2292.846, 1287.281 2292.564, 1285.026 2290.523 C 1281.078 2286.950, 1280.856 2281.747, 1281.184 2200.455 C 1281.480 2127.255, 1281.612 2122.240, 1283.302 2119.661 C 1286.882 2114.198, 1294.456 2114.051, 1298.425 2119.367 C 1300.367 2121.967, 1300.523 2123.712, 1300.853 2146.573 L 1301.205 2171 1334.751 2171 L 1368.298 2171 1367.715 2152.750 C 1367.094 2133.342, 1365.301 2120.552, 1361.940 2111.570 C 1355.864 2095.329, 1337.554 2080.570, 1316.407 2074.866 C 1306.046 2072.071, 1277.996 2071.274, 1268 2073.490 M 1647.164 2073.121 C 1644.229 2073.609, 1638.379 2075.165, 1634.164 2076.578 C 1612.932 2083.696, 1601.835 2095.751, 1597.417 2116.500 C 1595.090 2127.424, 1594.979 2155.627, 1597.222 2165.571 C 1599.221 2174.427, 1603.876 2184.795, 1608.753 2191.249 C 1612.900 2196.737, 1626.632 2207.358, 1649.690 2222.911 C 1680.406 2243.630, 1681.986 2245.750, 1682.772 2267.293 C 1683.468 2286.358, 1680.507 2292.333, 1670.361 2292.333 C 1666.869 2292.333, 1665.305 2291.760, 1663.283 2289.737 C 1661.046 2287.500, 1660.579 2285.920, 1659.914 2278.320 C 1659.490 2273.469, 1659.110 2262.863, 1659.071 2254.750 L 1659 2240 1628 2240 L 1597 2240 1597.010 2251.250 C 1597.033 2276.150, 1600.180 2296.048, 1605.699 2306.188 C 1611.734 2317.277, 1628.254 2328.496, 1645.500 2333.218 C 1652.502 2335.136, 1655.994 2335.407, 1673.500 2335.395 C 1692.466 2335.382, 1693.965 2335.239, 1702.500 2332.625 C 1720.865 2327, 1734.872 2317.093, 1740.382 2305.831 C 1744.063 2298.307, 1745.894 2288.684, 1746.628 2273 C 1747.634 2251.499, 1744.838 2231.514, 1738.991 2218.414 C 1733.540 2206.203, 1716.485 2191.350, 1686.845 2173 C 1678.377 2167.757, 1668.967 2161.035, 1665.848 2158 C 1660.869 2153.154, 1660.053 2151.791, 1658.984 2146.540 C 1657.395 2138.733, 1658.129 2125.492, 1660.391 2121.171 C 1664.301 2113.699, 1675.135 2113.615, 1677.694 2121.037 C 1678.395 2123.073, 1678.910 2130.576, 1678.944 2139.250 L 1679 2154 1710 2154 L 1741 2154 1740.992 2139.750 C 1740.983 2121.543, 1739.019 2108.219, 1735.207 2100.500 C 1728.957 2087.842, 1711.014 2077.280, 1689.341 2073.500 C 1679.928 2071.859, 1656.047 2071.644, 1647.164 2073.121 M 2237.831 2072.964 C 2222.745 2075.702, 2208.747 2082.435, 2199.028 2091.629 C 2187.202 2102.817, 2181.626 2115.032, 2180.009 2133.294 C 2178.672 2148.399, 2178.713 2255.702, 2180.062 2269.576 C 2181.279 2282.104, 2184.118 2295.217, 2187.045 2301.836 C 2194.227 2318.070, 2212.685 2330.493, 2235.548 2334.480 C 2247.072 2336.490, 2268.832 2336.461, 2278.792 2334.422 C 2294.359 2331.237, 2305.838 2325.116, 2317.095 2314 C 2326.093 2305.115, 2330.066 2297.622, 2332.436 2285.067 C 2334.070 2276.406, 2335.975 2250.520, 2335.991 2236.750 L 2336 2229 2302.500 2229 L 2269 2229 2268.946 2249.750 C 2268.880 2275.198, 2267.942 2285.262, 2265.306 2288.792 C 2261.259 2294.212, 2251.471 2293.592, 2248.257 2287.713 C 2246.622 2284.724, 2246.500 2278.897, 2246.500 2204 C 2246.500 2129.103, 2246.622 2123.276, 2248.257 2120.287 C 2250.473 2116.233, 2255.754 2114.541, 2261.361 2116.089 C 2268 2117.922, 2268.336 2119.732, 2268.802 2156.250 L 2269.207 2188 2302.763 2188 L 2336.318 2188 2335.676 2163.250 C 2334.511 2118.401, 2330.808 2105.248, 2315.363 2091.095 C 2307.604 2083.986, 2298.432 2079.014, 2286.463 2075.431 C 2278.502 2073.048, 2275.543 2072.713, 2260 2072.432 C 2250.375 2072.258, 2240.399 2072.497, 2237.831 2072.964 M 2462.164 2073.121 C 2459.229 2073.609, 2453.379 2075.165, 2449.164 2076.578 C 2427.932 2083.696, 2416.835 2095.751, 2412.417 2116.500 C 2410.090 2127.424, 2409.979 2155.627, 2412.222 2165.571 C 2414.221 2174.427, 2418.876 2184.795, 2423.753 2191.249 C 2427.900 2196.737, 2441.632 2207.358, 2464.690 2222.911 C 2495.406 2243.630, 2496.986 2245.750, 2497.772 2267.293 C 2498.468 2286.358, 2495.507 2292.333, 2485.361 2292.333 C 2481.869 2292.333, 2480.305 2291.760, 2478.283 2289.737 C 2476.046 2287.500, 2475.579 2285.920, 2474.914 2278.320 C 2474.490 2273.469, 2474.110 2262.863, 2474.071 2254.750 L 2474 2240 2443 2240 L 2412 2240 2412.010 2251.250 C 2412.033 2276.150, 2415.180 2296.048, 2420.699 2306.188 C 2426.734 2317.277, 2443.254 2328.496, 2460.500 2333.218 C 2467.502 2335.136, 2470.994 2335.407, 2488.500 2335.395 C 2507.466 2335.382, 2508.965 2335.239, 2517.500 2332.625 C 2535.865 2327, 2549.872 2317.093, 2555.382 2305.831 C 2559.063 2298.307, 2560.894 2288.684, 2561.628 2273 C 2562.634 2251.499, 2559.838 2231.514, 2553.991 2218.414 C 2548.540 2206.203, 2531.485 2191.350, 2501.845 2173 C 2493.377 2167.757, 2483.967 2161.035, 2480.848 2158 C 2475.869 2153.154, 2475.053 2151.791, 2473.984 2146.540 C 2472.395 2138.733, 2473.129 2125.492, 2475.391 2121.171 C 2479.301 2113.699, 2490.135 2113.615, 2492.694 2121.037 C 2493.395 2123.073, 2493.910 2130.576, 2493.944 2139.250 L 2494 2154 2525 2154 L 2556 2154 2555.992 2139.750 C 2555.983 2121.543, 2554.019 2108.219, 2550.207 2100.500 C 2543.957 2087.842, 2526.014 2077.280, 2504.341 2073.500 C 2494.928 2071.859, 2471.047 2071.644, 2462.164 2073.121 M 808 2204 L 808 2331 861.500 2331 L 915 2331 915 2305.500 L 915 2280 895 2280 L 875 2280 875 2178.500 L 875 2077 841.500 2077 L 808 2077 808 2204 M 1451 2204 L 1451 2331 1484.500 2331 L 1518 2331 1518 2204 L 1518 2077 1484.500 2077 L 1451 2077 1451 2204 M 1813 2102.500 L 1813 2128 1832.500 2128 L 1852 2128 1852 2229.500 L 1852 2331 1885.500 2331 L 1919 2331 1919 2229.500 L 1919 2128 1939 2128 L 1959 2128 1959 2102.500 L 1959 2077 1886 2077 L 1813 2077 1813 2102.500 M 2030 2204 L 2030 2331 2063.500 2331 L 2097 2331 2097 2204 L 2097 2077 2063.500 2077 L 2030 2077 2030 2204 M 1055.090 2115.898 C 1053.765 2116.255, 1051.740 2117.807, 1050.590 2119.347 C 1048.510 2122.134, 1048.500 2122.525, 1048.500 2204.323 C 1048.500 2267.963, 1048.780 2286.989, 1049.742 2288.670 C 1051.411 2291.584, 1056.921 2293.361, 1060.304 2292.075 C 1061.729 2291.533, 1063.706 2289.852, 1064.698 2288.339 C 1066.389 2285.759, 1066.519 2280.739, 1066.803 2207.045 C 1066.969 2163.845, 1066.832 2126.607, 1066.498 2124.293 C 1065.512 2117.466, 1061.160 2114.263, 1055.090 2115.898" stroke="none" fill="#ec4c1c" fill-rule="evenodd"/></svg>